<?xml version="1.0" standalone="no"?>
<!DOCTYPE svg PUBLIC "-//W3C//DTD SVG 20010904//EN"
 "http://www.w3.org/TR/2001/REC-SVG-20010904/DTD/svg10.dtd">
<svg version="1.0" xmlns="http://www.w3.org/2000/svg"
 width="135.000000pt" height="35.000000pt" viewBox="0 0 135.000000 3500.000000" fill="none"
 preserveAspectRatio="xMidYMid meet">

<g transform="translate(0.000000,4500.000000) scale(0.3500000,-0.310000)"
fill="#000000" stroke="none">
<path d="M9475 14035 c-11 -2 -69 -9 -130 -16 -697 -75 -1336 -583 -1588
-1259 -92 -248 -118 -403 -126 -755 l-6 -270 -535 -5 -535 -5 -57 -28 c-95
-47 -156 -130 -178 -242 -8 -44 -10 -842 -8 -3045 3 -2958 3 -2985 23 -3034
28 -68 104 -149 173 -183 l57 -28 3035 0 3035 0 57 28 c69 34 145 115 173 183
20 49 20 76 23 3034 2 2192 0 3001 -8 3045 -23 120 -100 215 -206 255 -52 19
-77 20 -484 20 l-430 0 0 -330 0 -330 228 -2 227 -3 3 -2617 2 -2618 -2620 0
-2620 0 2 2618 3 2617 320 0 320 0 5 -400 5 -400 26 -56 c34 -73 96 -134 168
-167 81 -38 193 -38 272 -1 72 34 134 96 168 168 l26 56 6 995 c5 966 6 998
26 1080 53 213 125 366 249 525 193 248 459 413 776 481 116 25 380 25 496 0
560 -121 969 -559 1042 -1119 6 -45 10 -174 8 -287 l-3 -205 -1202 -3 -1203
-2 0 -330 0 -330 1203 -2 1202 -3 5 -400 5 -400 26 -56 c34 -72 96 -134 168
-168 79 -37 191 -37 272 1 72 33 134 94 168 167 l26 56 3 935 c2 619 -1 974
-8 1050 -85 900 -779 1636 -1665 1766 -96 14 -378 27 -420 19z"/>
<path d="M4460 4235 l0 -685 120 0 120 0 0 264 c0 145 4 286 10 314 19 102 83
163 178 170 71 5 116 -22 150 -88 21 -43 22 -53 22 -352 l0 -308 125 0 125 0
0 298 c0 163 -5 328 -10 365 -13 91 -44 159 -91 202 -61 55 -101 68 -209 69
-116 1 -168 -20 -247 -101 l-53 -54 0 296 0 295 -120 0 -120 0 0 -685z"/>
<path d="M8981 4902 c-49 -24 -74 -62 -74 -112 0 -130 195 -179 264 -66 70
115 -66 242 -190 178z"/>
<path d="M3735 4845 c-144 -30 -254 -108 -303 -213 -22 -48 -27 -71 -26 -142
0 -181 72 -261 360 -400 169 -82 205 -110 223 -176 20 -72 -27 -144 -113 -169
-127 -38 -311 -2 -423 81 -17 13 -34 24 -37 24 -3 0 -6 -56 -6 -126 l0 -125
35 -15 c90 -37 160 -48 305 -49 90 0 166 5 200 14 196 48 300 164 306 341 6
179 -90 292 -345 405 -191 85 -244 131 -244 212 0 50 34 94 93 120 90 39 282
23 391 -32 l49 -24 0 118 0 119 -27 10 c-98 38 -319 52 -438 27z"/>
<path d="M11545 4813 c3 -16 81 -305 174 -643 l167 -615 145 -3 145 -3 33 118
c18 65 39 138 46 163 7 25 25 90 40 145 37 139 60 223 94 345 17 58 33 129 37
158 7 53 24 55 24 3 0 -14 54 -226 120 -472 66 -246 120 -450 120 -454 0 -3
64 -4 142 -3 141 3 141 3 149 28 4 14 68 250 143 525 74 275 149 551 166 613
16 62 30 115 30 117 0 3 -56 5 -124 5 -110 0 -125 -2 -130 -17 -19 -63 -216
-948 -216 -973 0 -16 -4 -30 -10 -30 -5 0 -10 14 -10 30 0 33 -11 81 -115 480
-36 140 -80 312 -97 383 l-32 127 -133 0 c-73 0 -133 -2 -133 -5 0 -2 -59
-212 -131 -467 -71 -255 -133 -487 -136 -516 -3 -29 -8 -50 -10 -48 -3 2 -9
33 -13 68 -8 54 -79 370 -190 836 l-32 132 -135 0 -135 0 7 -27z"/>
<path d="M5855 4475 c-212 -46 -336 -190 -359 -415 -26 -253 113 -460 345
-515 128 -30 306 -8 405 50 55 32 125 103 158 160 81 137 84 363 8 512 -29 56
-106 132 -170 166 -98 53 -258 70 -387 42z m252 -204 c80 -45 120 -152 110
-291 -8 -102 -30 -162 -77 -204 -48 -43 -106 -60 -187 -53 -148 11 -223 126
-210 319 8 121 65 211 153 244 56 21 160 13 211 -15z"/>
<path d="M7120 4476 c-61 -16 -109 -47 -159 -101 -23 -25 -43 -45 -45 -45 -2
0 -3 32 -2 70 l2 70 -123 0 -123 0 0 -675 0 -675 120 0 120 0 0 263 c0 145 3
266 6 270 3 3 19 -10 36 -28 89 -103 278 -123 421 -47 181 97 269 373 201 635
-21 82 -53 135 -115 191 -84 76 -220 105 -339 72z m91 -187 c91 -31 134 -115
133 -259 0 -154 -46 -249 -139 -291 -101 -46 -214 -6 -268 96 -19 35 -22 56
-22 165 0 117 2 128 27 177 28 52 71 93 118 112 34 13 110 13 151 0z"/>
<path d="M8250 4476 c-61 -16 -109 -46 -158 -100 -22 -24 -43 -41 -46 -38 -3
3 -6 34 -6 69 l0 63 -120 0 -120 0 0 -675 0 -675 120 0 120 0 2 253 c0 138 2
257 3 262 2 6 3 14 4 18 0 4 15 -8 32 -27 90 -104 279 -125 422 -48 145 78
238 285 223 497 -11 152 -43 234 -124 315 -49 48 -70 62 -126 79 -76 23 -158
26 -226 7z m91 -187 c48 -16 96 -65 116 -118 25 -63 24 -216 -1 -289 -44 -130
-169 -194 -284 -147 -89 38 -124 102 -130 239 -7 161 34 257 130 305 48 23
116 27 169 10z"/>
<path d="M9877 4479 c-62 -15 -112 -45 -160 -99 -51 -57 -57 -53 -53 38 l2 52
-123 0 -123 0 0 -460 0 -460 123 0 122 0 0 288 c0 326 5 352 75 416 43 38 89
51 152 43 52 -7 86 -32 112 -83 20 -37 21 -58 24 -351 l3 -313 125 0 126 0 -5
338 c-4 365 -9 404 -62 483 -64 98 -199 141 -338 108z"/>
<path d="M10772 4475 c-76 -21 -109 -41 -168 -100 -98 -97 -138 -213 -137
-395 0 -173 38 -269 143 -363 71 -64 161 -92 267 -84 97 7 167 41 229 110 l47
52 -6 -85 c-7 -109 -22 -151 -69 -204 -95 -109 -293 -126 -482 -42 l-56 25 0
-103 0 -102 34 -17 c69 -32 193 -50 306 -44 249 14 397 106 473 294 l32 78 3
488 3 487 -120 0 -121 0 0 -56 0 -57 -50 47 c-28 26 -67 54 -88 63 -53 22
-176 26 -240 8z m254 -194 c49 -22 97 -78 113 -130 16 -54 14 -208 -4 -267
-51 -171 -254 -220 -363 -88 -61 73 -78 193 -46 319 37 147 175 223 300 166z"/>
<path d="M13735 4483 c-53 -7 -149 -34 -197 -55 l-48 -20 0 -94 0 -94 63 35
c111 61 266 83 337 47 45 -22 80 -75 80 -121 l0 -37 -160 -22 c-237 -33 -319
-71 -373 -170 -56 -103 -44 -245 27 -329 55 -64 113 -87 221 -87 114 -1 175
24 240 96 l45 50 0 -66 0 -66 120 0 121 0 -2 298 c-1 313 -7 388 -40 462 -60
136 -225 202 -434 173z m235 -558 c0 -99 -41 -165 -122 -200 -78 -32 -164 -11
-204 50 -12 19 -15 37 -10 72 11 79 49 106 183 127 49 8 103 14 121 15 l32 1
0 -65z"/>
<path d="M15690 4475 c-221 -62 -358 -298 -322 -553 35 -248 170 -373 417
-389 107 -7 230 14 312 53 l53 25 0 95 0 94 -50 -25 c-140 -71 -314 -73 -410
-5 -36 25 -80 110 -80 153 l0 27 306 0 306 0 -4 118 c-5 131 -21 187 -74 267
-36 55 -104 105 -174 131 -64 23 -212 28 -280 9z m229 -182 c35 -26 71 -99 71
-145 l0 -38 -190 0 c-179 0 -190 1 -190 19 0 57 62 144 125 173 50 24 145 19
184 -9z"/>
<path d="M8920 4010 l0 -460 125 0 125 0 0 460 0 460 -125 0 -125 0 0 -460z"/>
<path d="M14330 4462 c0 -4 74 -209 165 -457 91 -247 165 -450 165 -452 0 -2
62 -3 138 -3 l137 0 18 48 c10 26 25 63 33 82 32 83 277 718 290 753 l13 37
-127 0 -128 0 -102 -322 c-56 -178 -106 -342 -111 -366 -5 -24 -11 -45 -13
-48 -3 -2 -10 24 -16 59 -6 34 -23 96 -36 137 -42 130 -124 392 -146 468 l-22
72 -129 0 c-71 0 -129 -3 -129 -8z"/>
</g>
</svg>
